<svg xmlns="http://www.w3.org/2000/svg" xmlns:xlink="http://www.w3.org/1999/xlink" width="46" height="52" viewBox="0 0 46 52">
    <defs>
        <path id="b" d="M1 0h173v1176.357H1z"/>
        <filter id="a" width="109.2%" height="101.4%" x="-2.3%" y="-.7%" filterUnits="objectBoundingBox">
            <feOffset dx="4" in="SourceAlpha" result="shadowOffsetOuter1"/>
            <feGaussianBlur in="shadowOffsetOuter1" result="shadowBlurOuter1" stdDeviation="2"/>
            <feColorMatrix in="shadowBlurOuter1" values="0 0 0 0 0 0 0 0 0 0 0 0 0 0 0 0 0 0 0.15123981 0"/>
        </filter>
        <path id="d" d="M3.606 7.385a.365.365 0 0 1-.14-.029.388.388 0 0 1-.208-.5c.981-2.483 3.304-4.087 5.918-4.087 1.082 0 2.151.283 3.092.817a.39.39 0 0 1 .146.523.37.37 0 0 1-.51.15 5.53 5.53 0 0 0-2.728-.72c-2.306 0-4.356 1.415-5.222 3.605-.059.15-.2.24-.348.24z"/>
        <filter id="c" width="1161.7%" height="2223.3%" x="-530.8%" y="-888.3%" filterUnits="objectBoundingBox">
            <feOffset dy="8" in="SourceAlpha" result="shadowOffsetOuter1"/>
            <feGaussianBlur in="shadowOffsetOuter1" result="shadowBlurOuter1" stdDeviation="15"/>
            <feColorMatrix in="shadowBlurOuter1" values="0 0 0 0 0.117647059 0 0 0 0 0.529411765 0 0 0 0 0.941176471 0 0 0 0.2 0"/>
        </filter>
        <path id="f" d="M8.059 9.92a1.435 1.435 0 0 1-.437-2.005c.443-.673 3.455-2.838 3.455-2.838s-.532 3.742-.976 4.414a1.493 1.493 0 0 1-2.042.43z"/>
        <filter id="e" width="2754.2%" height="2030.3%" x="-1327.1%" y="-807.6%" filterUnits="objectBoundingBox">
            <feOffset dy="8" in="SourceAlpha" result="shadowOffsetOuter1"/>
            <feGaussianBlur in="shadowOffsetOuter1" result="shadowBlurOuter1" stdDeviation="15"/>
            <feColorMatrix in="shadowBlurOuter1" values="0 0 0 0 0.941176471 0 0 0 0 0.31372549 0 0 0 0 0.431372549 0 0 0 0.2 0"/>
        </filter>
    </defs>
    <g fill="none" fill-rule="evenodd">
        <g transform="translate(-1 -73)">
            <use fill="#000" filter="url(#a)" xlink:href="#b"/>
            <use fill="#485465" xlink:href="#b"/>
        </g>
        <path fill="#58B6F0" d="M0 42.44h173V91H0z" opacity=".374"/>
        <path fill="#209AE5" d="M0 42.44h3V91H0z"/>
        <text fill="#FFF" font-family="Avenir-Black, Avenir" font-size="10" font-weight="700" transform="translate(-1)">
            <tspan x="42" y="59">Code Defect </tspan> <tspan x="42" y="76.28">Prediction</tspan>
        </text>
        <text fill="#FFF" font-family="Avenir-Medium, Avenir" font-size="10" font-weight="400" transform="translate(-1)">
            <tspan x="42" y="18">Dashboard</tspan>
        </text>
        <g fill-rule="nonzero">
            <path fill="#FFF" d="M22.986 11.923h-1.51c-4.172 0-7.553 3.306-7.553 7.385h16.615c0-4.079-3.38-7.385-7.552-7.385z"/>
            <g transform="translate(13 11)">
                <use fill="#000" filter="url(#c)" xlink:href="#d"/>
                <use fill="#1E87F0" fill-rule="evenodd" xlink:href="#d"/>
            </g>
            <path fill="#8CA0B3" d="M22 11c-4.963 0-9 4.037-9 9 0 .414.336.75.75.75h5.348A2.998 2.998 0 0 0 22 23a2.998 2.998 0 0 0 2.902-2.25h5.348A.75.75 0 0 0 31 20c0-4.963-4.037-9-9-9zm-7.463 8.25c.378-3.785 3.58-6.75 7.463-6.75 3.882 0 7.085 2.965 7.463 6.75H14.537z"/>
            <g transform="translate(13 11)">
                <use fill="#000" filter="url(#e)" xlink:href="#f"/>
                <use fill="#F0506E" fill-rule="evenodd" xlink:href="#f"/>
            </g>
        </g>
    </g>
</svg>
