<svg xmlns="http://www.w3.org/2000/svg" xmlns:xlink="http://www.w3.org/1999/xlink" width="21" height="16" viewBox="0 0 21 16">
    <defs>
        <path id="b" d="M1 0h173v1176.357H1z"/>
        <filter id="a" width="109.2%" height="101.4%" x="-2.3%" y="-.7%" filterUnits="objectBoundingBox">
            <feOffset dx="4" in="SourceAlpha" result="shadowOffsetOuter1"/>
            <feGaussianBlur in="shadowOffsetOuter1" result="shadowBlurOuter1" stdDeviation="2"/>
            <feColorMatrix in="shadowBlurOuter1" values="0 0 0 0 0 0 0 0 0 0 0 0 0 0 0 0 0 0 0.15123981 0"/>
        </filter>
    </defs>
    <g fill="none" fill-rule="evenodd">
        <g transform="translate(-144 -18)">
            <use fill="#000" filter="url(#a)" xlink:href="#b"/>
            <use fill="#485465" xlink:href="#b"/>
        </g>
        <g fill="#FFF" fill-rule="nonzero">
            <path d="M10.689 15.28h8.462c.667 0 1.209-.573 1.209-1.28 0-.707-.542-1.28-1.209-1.28H10.69c-.667 0-1.209.573-1.209 1.28 0 .707.542 1.28 1.209 1.28zM1.76 3.12h17.36c.684 0 1.24-.573 1.24-1.28 0-.707-.556-1.28-1.24-1.28H1.76C1.076.56.52 1.133.52 1.84c0 .707.556 1.28 1.24 1.28zM1.76 9.52h17.36c.684 0 1.24-.573 1.24-1.28 0-.707-.556-1.28-1.24-1.28H1.76c-.684 0-1.24.573-1.24 1.28 0 .707.556 1.28 1.24 1.28z"/>
        </g>
    </g>
</svg>
